<?xml version="1.0" encoding="UTF-8"?>
<!DOCTYPE svg PUBLIC "-//W3C//DTD SVG 1.1//EN" "http://www.w3.org/Graphics/SVG/1.1/DTD/svg11.dtd">
<!-- Creator: CorelDRAW X8 -->
<svg xmlns="http://www.w3.org/2000/svg" xml:space="preserve" width="8.5in" height="11in" version="1.1" style="shape-rendering:geometricPrecision; text-rendering:geometricPrecision; image-rendering:optimizeQuality; fill-rule:evenodd; clip-rule:evenodd"
viewBox="0 0 8500 11000"
 xmlns:xlink="http://www.w3.org/1999/xlink">
 <defs>
  <style type="text/css">
   <![CDATA[
    .fil0 {fill:#217D68;fill-rule:nonzero}
    .fil1 {fill:white;fill-rule:nonzero}
    .fil2 {fill:#6FDCC3;fill-rule:nonzero;fill-opacity:0.858824}
   ]]>
  </style>
 </defs>
 <g id="Layer_x0020_1">
  <metadata id="CorelCorpID_0Corel-Layer"/>
  <g id="_1958759241744">
   <path class="fil0" d="M5141 5010l-92 0c23,-67 35,-139 35,-214 0,-366 -297,-663 -663,-663 -320,0 -588,228 -649,530 -79,-75 -184,-120 -301,-120 -240,0 -436,195 -436,436 0,11 1,21 1,31l-27 0c-193,0 -352,158 -352,352 0,193 159,351 352,351l2132 0c193,0 351,-158 351,-351 0,-194 -158,-352 -351,-352z"/>
   <path class="fil1" d="M5074 4944l-92 0c23,-67 36,-139 36,-214 0,-366 -297,-663 -663,-663 -321,0 -588,227 -650,529 -78,-74 -184,-120 -300,-120 -241,0 -436,196 -436,437 0,10 0,21 1,31l-28 0c-193,0 -351,158 -351,351 0,194 158,352 351,352l2132 0c194,0 352,-158 352,-352 0,-193 -158,-351 -352,-351z"/>
   <path class="fil2" d="M5262 4998c34,55 54,119 54,188 0,193 -158,351 -351,351l-2132 0c-69,0 -133,-20 -187,-54 41,66 105,117 179,144l1 0c3,1 6,2 9,3l1 0 5 2 2 0c3,1 5,2 7,2l3 1 4 1 3 1c2,0 4,1 6,1l4 1 3 1c2,0 5,1 7,1l2 1c2,0 4,0 5,0l3 1c2,0 5,1 7,1l2 0c2,0 4,1 6,1l2 0c3,0 5,0 8,1l2 0c2,0 4,0 6,0l2 0c2,0 5,1 7,1l3 0c2,0 4,0 7,0l0 0 2132 0c3,0 6,0 9,0l0 0c3,0 6,-1 9,-1l0 0c3,0 6,0 9,0l0 0c3,-1 6,-1 9,-1l0 0c3,0 6,-1 9,-1 3,0 6,-1 9,-1l0 0c3,-1 6,-1 8,-2 3,0 6,-1 9,-1l0 0c3,-1 6,-2 9,-2l0 0c2,-1 5,-2 8,-2l0 0c3,-1 6,-2 8,-3l0 0c3,0 6,-1 9,-2l0 0c2,-1 5,-2 8,-3 3,-1 5,-2 8,-3 3,-1 5,-2 8,-3l0 0c3,-1 5,-2 8,-3l0 0c3,-1 5,-2 8,-3l0 0c2,-2 5,-3 7,-4l0 0c3,-1 6,-3 8,-4l0 0c3,-1 5,-2 8,-4l0 0c2,-1 5,-3 7,-4l0 0c2,-1 5,-3 7,-4 3,-2 5,-3 7,-5l0 0c3,-1 5,-3 8,-4l0 0c2,-2 4,-4 7,-5l0 0c2,-2 4,-4 6,-5l0 0c3,-2 5,-4 7,-5 2,-2 4,-4 7,-6l0 0c2,-2 4,-3 6,-5 2,-2 4,-4 6,-6l0 0c2,-2 5,-4 7,-6 2,-2 4,-3 6,-5l0 0c2,-2 4,-4 6,-7 1,-2 3,-4 5,-6l0 0c2,-2 4,-4 6,-6 2,-2 4,-4 5,-6 2,-3 4,-5 6,-7 1,-2 3,-4 5,-7 1,-2 3,-4 5,-7l0 0c1,-2 3,-4 5,-7l0 0c1,-2 3,-4 4,-7 2,-2 3,-4 5,-7l0 0c1,-2 3,-5 4,-7 2,-3 3,-5 4,-8 2,-2 3,-4 4,-7 2,-3 3,-5 4,-8 1,-2 2,-5 4,-7 1,-3 2,-6 3,-8 1,-3 2,-5 3,-8 1,-3 2,-5 3,-8 1,-3 2,-6 3,-8 1,-3 2,-6 3,-8 1,-3 2,-6 2,-9 1,-2 2,-5 3,-8 0,-3 1,-6 2,-9 0,-2 1,-5 2,-8 0,-3 1,-6 1,-9l0 0c1,-3 1,-5 2,-8 0,-3 1,-6 1,-9 0,-3 1,-6 1,-9 0,-3 1,-6 1,-9 0,-3 0,-6 0,-9 1,-3 1,-6 1,-9 0,-3 0,-6 0,-9 0,-2 0,-5 0,-8l0 -2c0,-2 0,-5 -1,-7l0 -1c0,-3 0,-5 0,-8l0 -1c0,-3 -1,-5 -1,-8l0 -1c0,-3 -1,-5 -1,-7l0 -2c0,-2 -1,-5 -1,-7l0 -2c-1,-2 -1,-4 -1,-6l-1 -2c0,-3 -1,-5 -1,-7l-1 -3c0,-1 0,-3 -1,-5l-1 -3c0,-2 0,-4 -1,-6l-1 -3c0,-1 -1,-3 -1,-4 0,-2 -1,-3 -1,-5l-1 -4 -2 -3 0 -3c-1,-3 -2,-5 -3,-8l0 -1c-2,-5 -4,-10 -6,-15l0 0c-28,-68 -77,-126 -138,-165z"/>
  </g>
 </g>
</svg>
