<?xml version="1.0" encoding="UTF-8"?>
<!DOCTYPE svg PUBLIC "-//W3C//DTD SVG 1.1//EN" "http://www.w3.org/Graphics/SVG/1.1/DTD/svg11.dtd">
<!-- Creator: CorelDRAW X8 -->
<svg xmlns="http://www.w3.org/2000/svg" xml:space="preserve" width="11.6929in" height="8.26772in" version="1.1" style="shape-rendering:geometricPrecision; text-rendering:geometricPrecision; image-rendering:optimizeQuality; fill-rule:evenodd; clip-rule:evenodd"
viewBox="0 0 11693 8268"
 xmlns:xlink="http://www.w3.org/1999/xlink"
 enable-background="new 0 0 800 300">
 <defs>
  <style type="text/css">
   <![CDATA[
    .fil13 {fill:#217D68}
    .fil14 {fill:#378C79}
    .fil7 {fill:#3E9C87}
    .fil9 {fill:#439F8A}
    .fil8 {fill:#4AB19A}
    .fil2 {fill:#58D6B9}
    .fil16 {fill:#6DA0AB}
    .fil5 {fill:#70595E}
    .fil15 {fill:#8FD182}
    .fil11 {fill:#AF946C}
    .fil4 {fill:#C6F7FB}
    .fil3 {fill:#CA8A65}
    .fil12 {fill:#E0EBE8}
    .fil1 {fill:#F4A0A0}
    .fil10 {fill:#F6D546}
    .fil0 {fill:white}
    .fil17 {fill:url(#id0)}
    .fil6 {fill:url(#id1)}
   ]]>
  </style>
  <linearGradient id="id0" gradientUnits="userSpaceOnUse" x1="3610.15" y1="2948.61" x2="3610.15" y2="3210.04">
   <stop offset="0" style="stop-opacity:1; stop-color:#E0EBE8"/>
   <stop offset="1" style="stop-opacity:1; stop-color:white"/>
  </linearGradient>
  <linearGradient id="id1" gradientUnits="userSpaceOnUse" xlink:href="#id0" x1="5704.09" y1="2155.81" x2="5704.09" y2="2357">
  </linearGradient>
 </defs>
 <g id="Layer_x0020_1">
  <metadata id="CorelCorpID_0Corel-Layer"/>
  <rect id="flagPoleLeft" class="fil0" x="1913" y="2913" width="41.6654" height="1500"/>
  <path id="leftGreenFlag2" class="fil1" d="M1533 3182l427 -160 0 333 -427 -173zm0 0z"/>
  <path id="leftGreenFlag" class="fil2" d="M1533 2973l427 -159 0 333 -427 -174zm0 0z"/>
  <rect id="flagPoleLeft2" class="fil0" x="8788" y="2913" width="41.6654" height="1500"/>
  <path id="leftGreenFlag3" class="fil2" d="M8408 3182l427 -160 0 333 -427 -173zm0 0z"/>
  <path id="leftGreenFlag4" class="fil1" d="M8408 2973l427 -159 0 333 -427 -174zm0 0z"/>
  <rect id="rectangle15" class="fil3" x="5517" y="2433" width="240" height="240"/>
  <rect id="rectangle16" class="fil4" x="5548" y="2475" width="62.5" height="62.5"/>
  <rect id="rectangle17" class="fil4" x="5673" y="2475" width="62.5" height="62.5"/>
  <rect id="rectangle18" class="fil4" x="5548" y="2579" width="62.5" height="62.5"/>
  <rect id="rectangle19" class="fil5" x="5673" y="2579" width="62.5" height="93.752"/>
  <path id="polygon2" class="fil5" d="M5637 2312l161 130 -322 0 161 -130zm0 0z"/>
  <path id="oval10" class="fil6" d="M5684 2249c1,-57 13,-101 27,-97 15,5 26,54 25,112 -1,57 -14,100 -28,96 -14,-3 -24,-49 -24,-104m0 -7l0 0 0 0z"/>
  <rect id="rectangle20" class="fil5" x="5673" y="2319" width="67.7087" height="93.752"/>
  <path id="backHill" class="fil7" d="M3444 4454c0,-1029 882,-1864 1969,-1864 1087,0 1969,835 1969,1864l-1969 0 -1969 0zm0 0z"/>
  <path id="whiteHill" class="fil0" d="M4704 5880c0,-1288 1085,-2176 2422,-2176 1338,0 2422,888 2422,2176l-2422 0 -2422 0zm0 0z"/>
  <path id="leftHill" class="fil8" d="M1267 5881c0,-1352 1187,-2448 2651,-2448 1464,0 2651,1096 2651,2448l-2651 0 -2651 0zm0 0z"/>
  <ellipse id="oval" class="fil9" cx="2319" cy="4293" rx="125" ry="57"/>
  <path id="bezier" class="fil10" d="M2168 4147l139 -583 163 583 -302 0zm0 0z"/>
  <rect id="rectangle" class="fil11" x="2309" y="3902" width="20.8346" height="385.417"/>
  <path id="bezier2" class="fil11" d="M2314 4000l60 -61 13 13 -66 68 -5 2 -2 -22zm0 0z"/>
  <path id="bezier3" class="fil11" d="M2314 4083l60 -61 13 14 -66 67 -5 2 -2 -22zm0 0z"/>
  <path id="bezier4" class="fil11" d="M2324 4041l-59 -61 -14 14 67 67 4 3 2 -23zm0 0z"/>
  <ellipse id="oval3" class="fil9" cx="3092" cy="3996" rx="107" ry="42"/>
  <path id="bezier9" class="fil1" d="M2939 3874l139 -530 163 530 -302 0zm0 0z"/>
  <rect id="rectangle3" class="fil11" x="3079" y="3683" width="20.8346" height="312.5"/>
  <path id="bezier10" class="fil11" d="M3085 3740l59 -55 14 12 -67 62 -4 2 -2 -21zm0 0z"/>
  <path id="bezier11" class="fil11" d="M3085 3816l59 -55 14 12 -67 61 -4 2 -2 -20zm0 0z"/>
  <path id="bezier12" class="fil11" d="M3095 3778l-60 -55 -13 12 66 61 5 2 2 -20zm0 0z"/>
  <ellipse id="oval4" class="fil12" cx="7514" cy="4079" rx="112" ry="42"/>
  <path id="bezier13" class="fil1" d="M7366 3957l139 -529 163 529 -302 0zm0 0z"/>
  <rect id="rectangle4" class="fil11" x="7507" y="3767" width="20.8346" height="312.5"/>
  <path id="bezier14" class="fil11" d="M7512 3823l59 -55 14 13 -67 61 -4 2 -2 -21zm0 0z"/>
  <path id="bezier15" class="fil11" d="M7512 3899l59 -55 14 12 -67 62 -4 2 -2 -21zm0 0z"/>
  <path id="bezier16" class="fil11" d="M7522 3861l-60 -55 -13 12 67 62 4 2 2 -21zm0 0z"/>
  <ellipse id="oval5" class="fil12" cx="8309" cy="4246" rx="104" ry="42"/>
  <path id="bezier17" class="fil10" d="M8158 4105l139 -583 163 583 -302 0zm0 0z"/>
  <rect id="rectangle5" class="fil11" x="8298" y="3861" width="20.8346" height="385.417"/>
  <path id="bezier18" class="fil11" d="M8303 3958l60 -61 13 14 -66 67 -4 2 -3 -22zm0 0z"/>
  <path id="bezier19" class="fil11" d="M8303 4041l60 -61 13 14 -66 67 -4 3 -3 -23zm0 0z"/>
  <path id="bezier20" class="fil11" d="M8314 4000l-60 -61 -13 13 66 68 5 2 2 -22zm0 0z"/>
  <ellipse id="oval6" class="fil12" cx="7954" cy="4642" rx="125" ry="42"/>
  <path id="bezier21" class="fil13" d="M7772 4533l171 -646 199 646 -370 0zm0 0z"/>
  <rect id="rectangle6" class="fil11" x="7944" y="4298" width="20.8346" height="343.752"/>
  <path id="bezier22" class="fil11" d="M7949 4368l60 -60 13 14 -66 66 -5 3 -2 -23zm0 0z"/>
  <path id="bezier23" class="fil11" d="M7949 4451l60 -60 13 13 -66 67 -5 2 -2 -22zm0 0z"/>
  <path id="bezier24" class="fil11" d="M7960 4410l-60 -60 -13 13 66 67 4 2 3 -22zm0 0z"/>
  <ellipse id="oval2" class="fil9" cx="2725" cy="4126" rx="125" ry="57"/>
  <path id="bezier5" class="fil13" d="M2564 3980l154 -718 179 718 -333 0zm0 0z"/>
  <rect id="rectangle2" class="fil11" x="2715" y="3736" width="20.8346" height="385.417"/>
  <path id="bezier6" class="fil11" d="M2720 3833l60 -61 13 14 -66 67 -5 2 -2 -22zm0 0z"/>
  <path id="bezier7" class="fil11" d="M2720 3916l60 -61 13 14 -66 67 -5 3 -2 -23zm0 0z"/>
  <path id="bezier8" class="fil11" d="M2731 3875l-60 -61 -13 13 66 68 4 2 3 -22zm0 0z"/>
  <ellipse id="oval7" class="fil14" cx="4871" cy="2991" rx="125" ry="57"/>
  <path id="bezier25" class="fil15" d="M4710 2845l154 -719 179 719 -333 0zm0 0z"/>
  <rect id="rectangle7" class="fil11" x="4861" y="2600" width="20.8346" height="385.417"/>
  <path id="bezier26" class="fil11" d="M4866 2697l60 -60 13 13 -66 68 -5 2 -2 -23zm0 0z"/>
  <path id="bezier27" class="fil11" d="M4866 2781l60 -61 13 13 -66 68 -5 2 -2 -22zm0 0z"/>
  <path id="bezier28" class="fil11" d="M4876 2739l-59 -61 -14 14 67 67 4 3 2 -23zm0 0z"/>
  <ellipse id="oval8" class="fil14" cx="6363" cy="3131" rx="107" ry="42"/>
  <path id="bezier29" class="fil13" d="M6210 3010l139 -530 163 530 -302 0zm0 0z"/>
  <rect id="rectangle8" class="fil11" x="6350" y="2819" width="20.8346" height="312.5"/>
  <path id="bezier30" class="fil11" d="M6356 2876l59 -56 13 13 -66 61 -4 2 -2 -20zm0 0z"/>
  <path id="bezier31" class="fil11" d="M6356 2951l59 -55 13 12 -66 62 -4 2 -2 -21zm0 0z"/>
  <path id="bezier32" class="fil11" d="M6366 2913l-60 -55 -13 12 66 62 5 2 2 -21zm0 0z"/>
  <rect id="rectangle9" class="fil16" x="3361" y="3308" width="313" height="313"/>
  <rect id="rectangle10" class="fil4" x="3402" y="3361" width="83.3346" height="83.3346"/>
  <rect id="rectangle11" class="fil4" x="3559" y="3361" width="83.3346" height="83.3346"/>
  <rect id="rectangle12" class="fil4" x="3402" y="3496" width="83.3346" height="83.3346"/>
  <rect id="rectangle13" class="fil5" x="3559" y="3496" width="83.3346" height="125"/>
  <path id="polygon" class="fil5" d="M3517 3152l207 168 -415 0 208 -168zm0 0z"/>
  <path id="oval9" class="fil17" d="M3580 3070c1,-75 16,-131 33,-126 17,5 30,70 29,145 -1,74 -16,131 -33,125 -17,-5 -30,-64 -30,-135m1 -9l0 0 0 0z"/>
  <rect id="rectangle14" class="fil5" x="3569" y="3163" width="78.126" height="125"/>
 </g>
</svg>
